<?xml version="1.0" encoding="UTF-8" standalone="no"?>
<!DOCTYPE svg PUBLIC "-//W3C//DTD SVG 1.1//EN"
 "http://www.w3.org/Graphics/SVG/1.1/DTD/svg11.dtd">
<!-- Generated by graphviz version 3.0.0 (20220226.1711)
 -->
<!-- Title: dependencies Pages: 1 -->
<svg width="2965pt" height="247pt"
 viewBox="0.00 0.00 2965.00 246.80" xmlns="http://www.w3.org/2000/svg" xmlns:xlink="http://www.w3.org/1999/xlink">
<g id="graph0" class="graph" transform="scale(1 1) rotate(0) translate(4 242.8)">
<title>dependencies</title>
<polygon fill="white" stroke="transparent" points="-4,4 -4,-242.8 2961,-242.8 2961,4 -4,4"/>
<text text-anchor="middle" x="1478.5" y="-8.2" font-family="sans-serif" font-size="14.00">dependencies</text>
<g id="clust1" class="cluster">
<title>cluster_AppModule</title>
<polygon fill="none" stroke="black" stroke-dasharray="1,5" points="8,-32.8 8,-230.8 2949,-230.8 2949,-32.8 8,-32.8"/>
</g>
<g id="clust23" class="cluster">
<title>cluster_AppModule_bootstrap</title>
<polygon fill="none" stroke="black" points="1366,-170.8 1366,-222.8 1490,-222.8 1490,-170.8 1366,-170.8"/>
</g>
<g id="clust21" class="cluster">
<title>cluster_AppModule_imports</title>
<polygon fill="none" stroke="black" points="2797,-40.8 2797,-92.8 2941,-92.8 2941,-40.8 2797,-40.8"/>
</g>
<g id="clust2" class="cluster">
<title>cluster_AppModule_declarations</title>
<polygon fill="none" stroke="black" points="16,-40.8 16,-92.8 2789,-92.8 2789,-40.8 16,-40.8"/>
</g>
<!-- AddBookmarkComponent -->
<g id="node1" class="node">
<title>AddBookmarkComponent</title>
<polygon fill="#ffffb3" stroke="black" points="2781.05,-84.8 2616.95,-84.8 2616.95,-48.8 2781.05,-48.8 2781.05,-84.8"/>
<text text-anchor="middle" x="2699" y="-62.6" font-family="Times,serif" font-size="14.00">AddBookmarkComponent</text>
</g>
<!-- AppModule -->
<g id="node19" class="node">
<title>AppModule</title>
<polygon fill="#8dd3c7" stroke="black" points="1469.66,-149.8 1466.66,-153.8 1445.66,-153.8 1442.66,-149.8 1386.34,-149.8 1386.34,-113.8 1469.66,-113.8 1469.66,-149.8"/>
<text text-anchor="middle" x="1428" y="-127.6" font-family="Times,serif" font-size="14.00">AppModule</text>
</g>
<!-- AddBookmarkComponent&#45;&gt;AppModule -->
<g id="edge1" class="edge">
<title>AddBookmarkComponent&#45;&gt;AppModule</title>
<path fill="none" stroke="black" d="M2699,-84.81C2699,-107.29 2699,-142.8 2699,-142.8 2699,-142.8 1479.93,-142.8 1479.93,-142.8"/>
<polygon fill="black" stroke="black" points="1479.93,-139.3 1469.93,-142.8 1479.93,-146.3 1479.93,-139.3"/>
</g>
<!-- AddNoteComponent -->
<g id="node2" class="node">
<title>AddNoteComponent</title>
<polygon fill="#ffffb3" stroke="black" points="2598.16,-84.8 2465.84,-84.8 2465.84,-48.8 2598.16,-48.8 2598.16,-84.8"/>
<text text-anchor="middle" x="2532" y="-62.6" font-family="Times,serif" font-size="14.00">AddNoteComponent</text>
</g>
<!-- AddNoteComponent&#45;&gt;AppModule -->
<g id="edge2" class="edge">
<title>AddNoteComponent&#45;&gt;AppModule</title>
<path fill="none" stroke="black" d="M2532,-84.84C2532,-106.46 2532,-139.8 2532,-139.8 2532,-139.8 1479.93,-139.8 1479.93,-139.8"/>
<polygon fill="black" stroke="black" points="1479.93,-136.3 1469.93,-139.8 1479.93,-143.3 1479.93,-136.3"/>
</g>
<!-- AddTodoComponent -->
<g id="node3" class="node">
<title>AddTodoComponent</title>
<polygon fill="#ffffb3" stroke="black" points="2447.49,-84.8 2312.51,-84.8 2312.51,-48.8 2447.49,-48.8 2447.49,-84.8"/>
<text text-anchor="middle" x="2380" y="-62.6" font-family="Times,serif" font-size="14.00">AddTodoComponent</text>
</g>
<!-- AddTodoComponent&#45;&gt;AppModule -->
<g id="edge3" class="edge">
<title>AddTodoComponent&#45;&gt;AppModule</title>
<path fill="none" stroke="black" d="M2380,-84.93C2380,-105.37 2380,-135.8 2380,-135.8 2380,-135.8 1479.83,-135.8 1479.83,-135.8"/>
<polygon fill="black" stroke="black" points="1479.83,-132.3 1469.83,-135.8 1479.83,-139.3 1479.83,-132.3"/>
</g>
<!-- AppComponent -->
<g id="node4" class="node">
<title>AppComponent</title>
<polygon fill="#ffffb3" stroke="black" points="2294.94,-84.8 2189.06,-84.8 2189.06,-48.8 2294.94,-48.8 2294.94,-84.8"/>
<text text-anchor="middle" x="2242" y="-62.6" font-family="Times,serif" font-size="14.00">AppComponent</text>
</g>
<!-- AppComponent&#45;&gt;AppModule -->
<g id="edge4" class="edge">
<title>AppComponent&#45;&gt;AppModule</title>
<path fill="none" stroke="black" d="M2242,-84.91C2242,-104.14 2242,-131.8 2242,-131.8 2242,-131.8 1479.77,-131.8 1479.77,-131.8"/>
<polygon fill="black" stroke="black" points="1479.77,-128.3 1469.77,-131.8 1479.77,-135.3 1479.77,-128.3"/>
</g>
<!-- BookmarkTileComponent -->
<g id="node5" class="node">
<title>BookmarkTileComponent</title>
<polygon fill="#ffffb3" stroke="black" points="2171.48,-84.8 2008.52,-84.8 2008.52,-48.8 2171.48,-48.8 2171.48,-84.8"/>
<text text-anchor="middle" x="2090" y="-62.6" font-family="Times,serif" font-size="14.00">BookmarkTileComponent</text>
</g>
<!-- BookmarkTileComponent&#45;&gt;AppModule -->
<g id="edge5" class="edge">
<title>BookmarkTileComponent&#45;&gt;AppModule</title>
<path fill="none" stroke="black" d="M2090,-85.07C2090,-103.36 2090,-128.8 2090,-128.8 2090,-128.8 1479.91,-128.8 1479.91,-128.8"/>
<polygon fill="black" stroke="black" points="1479.91,-125.3 1469.91,-128.8 1479.91,-132.3 1479.91,-125.3"/>
</g>
<!-- BookmarksComponent -->
<g id="node6" class="node">
<title>BookmarksComponent</title>
<polygon fill="#ffffb3" stroke="black" points="1990.88,-84.8 1845.12,-84.8 1845.12,-48.8 1990.88,-48.8 1990.88,-84.8"/>
<text text-anchor="middle" x="1918" y="-62.6" font-family="Times,serif" font-size="14.00">BookmarksComponent</text>
</g>
<!-- BookmarksComponent&#45;&gt;AppModule -->
<g id="edge6" class="edge">
<title>BookmarksComponent&#45;&gt;AppModule</title>
<path fill="none" stroke="black" d="M1918,-84.83C1918,-101.86 1918,-124.8 1918,-124.8 1918,-124.8 1479.78,-124.8 1479.78,-124.8"/>
<polygon fill="black" stroke="black" points="1479.78,-121.3 1469.78,-124.8 1479.78,-128.3 1479.78,-121.3"/>
</g>
<!-- EditBookmarkComponent -->
<g id="node7" class="node">
<title>EditBookmarkComponent</title>
<polygon fill="#ffffb3" stroke="black" points="1826.77,-84.8 1663.23,-84.8 1663.23,-48.8 1826.77,-48.8 1826.77,-84.8"/>
<text text-anchor="middle" x="1745" y="-62.6" font-family="Times,serif" font-size="14.00">EditBookmarkComponent</text>
</g>
<!-- EditBookmarkComponent&#45;&gt;AppModule -->
<g id="edge7" class="edge">
<title>EditBookmarkComponent&#45;&gt;AppModule</title>
<path fill="none" stroke="black" d="M1745,-84.81C1745,-100.85 1745,-121.8 1745,-121.8 1745,-121.8 1479.77,-121.8 1479.77,-121.8"/>
<polygon fill="black" stroke="black" points="1479.77,-118.3 1469.77,-121.8 1479.77,-125.3 1479.77,-118.3"/>
</g>
<!-- EditNoteComponent -->
<g id="node8" class="node">
<title>EditNoteComponent</title>
<polygon fill="#ffffb3" stroke="black" points="1644.88,-84.8 1513.12,-84.8 1513.12,-48.8 1644.88,-48.8 1644.88,-84.8"/>
<text text-anchor="middle" x="1579" y="-62.6" font-family="Times,serif" font-size="14.00">EditNoteComponent</text>
</g>
<!-- EditNoteComponent&#45;&gt;AppModule -->
<g id="edge8" class="edge">
<title>EditNoteComponent&#45;&gt;AppModule</title>
<path fill="none" stroke="black" d="M1579,-84.92C1579,-99.58 1579,-117.8 1579,-117.8 1579,-117.8 1480.06,-117.8 1480.06,-117.8"/>
<polygon fill="black" stroke="black" points="1480.06,-114.3 1470.06,-117.8 1480.06,-121.3 1480.06,-114.3"/>
</g>
<!-- EditTodoComponent -->
<g id="node9" class="node">
<title>EditTodoComponent</title>
<polygon fill="#ffffb3" stroke="black" points="1495.21,-84.8 1360.79,-84.8 1360.79,-48.8 1495.21,-48.8 1495.21,-84.8"/>
<text text-anchor="middle" x="1428" y="-62.6" font-family="Times,serif" font-size="14.00">EditTodoComponent</text>
</g>
<!-- EditTodoComponent&#45;&gt;AppModule -->
<g id="edge9" class="edge">
<title>EditTodoComponent&#45;&gt;AppModule</title>
<path fill="none" stroke="black" d="M1428,-84.91C1428,-84.91 1428,-103.79 1428,-103.79"/>
<polygon fill="black" stroke="black" points="1424.5,-103.79 1428,-113.79 1431.5,-103.79 1424.5,-103.79"/>
</g>
<!-- GoogleComponent -->
<g id="node10" class="node">
<title>GoogleComponent</title>
<polygon fill="#ffffb3" stroke="black" points="1343.05,-84.8 1220.95,-84.8 1220.95,-48.8 1343.05,-48.8 1343.05,-84.8"/>
<text text-anchor="middle" x="1282" y="-62.6" font-family="Times,serif" font-size="14.00">GoogleComponent</text>
</g>
<!-- GoogleComponent&#45;&gt;AppModule -->
<g id="edge10" class="edge">
<title>GoogleComponent&#45;&gt;AppModule</title>
<path fill="none" stroke="black" d="M1282,-84.92C1282,-99.58 1282,-117.8 1282,-117.8 1282,-117.8 1376.16,-117.8 1376.16,-117.8"/>
<polygon fill="black" stroke="black" points="1376.16,-121.3 1386.16,-117.8 1376.16,-114.3 1376.16,-121.3"/>
</g>
<!-- InfoBgComponent -->
<g id="node11" class="node">
<title>InfoBgComponent</title>
<polygon fill="#ffffb3" stroke="black" points="1202.49,-84.8 1081.51,-84.8 1081.51,-48.8 1202.49,-48.8 1202.49,-84.8"/>
<text text-anchor="middle" x="1142" y="-62.6" font-family="Times,serif" font-size="14.00">InfoBgComponent</text>
</g>
<!-- InfoBgComponent&#45;&gt;AppModule -->
<g id="edge11" class="edge">
<title>InfoBgComponent&#45;&gt;AppModule</title>
<path fill="none" stroke="black" d="M1142,-84.81C1142,-100.85 1142,-121.8 1142,-121.8 1142,-121.8 1376.11,-121.8 1376.11,-121.8"/>
<polygon fill="black" stroke="black" points="1376.11,-125.3 1386.11,-121.8 1376.11,-118.3 1376.11,-125.3"/>
</g>
<!-- ManageBookmarksComponent -->
<g id="node12" class="node">
<title>ManageBookmarksComponent</title>
<polygon fill="#ffffb3" stroke="black" points="1063.47,-84.8 872.53,-84.8 872.53,-48.8 1063.47,-48.8 1063.47,-84.8"/>
<text text-anchor="middle" x="968" y="-62.6" font-family="Times,serif" font-size="14.00">ManageBookmarksComponent</text>
</g>
<!-- ManageBookmarksComponent&#45;&gt;AppModule -->
<g id="edge12" class="edge">
<title>ManageBookmarksComponent&#45;&gt;AppModule</title>
<path fill="none" stroke="black" d="M968,-84.83C968,-101.86 968,-124.8 968,-124.8 968,-124.8 1375.96,-124.8 1375.96,-124.8"/>
<polygon fill="black" stroke="black" points="1375.96,-128.3 1385.96,-124.8 1375.96,-121.3 1375.96,-128.3"/>
</g>
<!-- NoteCardComponent -->
<g id="node13" class="node">
<title>NoteCardComponent</title>
<polygon fill="#ffffb3" stroke="black" points="854.76,-84.8 719.24,-84.8 719.24,-48.8 854.76,-48.8 854.76,-84.8"/>
<text text-anchor="middle" x="787" y="-62.6" font-family="Times,serif" font-size="14.00">NoteCardComponent</text>
</g>
<!-- NoteCardComponent&#45;&gt;AppModule -->
<g id="edge13" class="edge">
<title>NoteCardComponent&#45;&gt;AppModule</title>
<path fill="none" stroke="black" d="M787,-85.07C787,-103.36 787,-128.8 787,-128.8 787,-128.8 1375.94,-128.8 1375.94,-128.8"/>
<polygon fill="black" stroke="black" points="1375.94,-132.3 1385.94,-128.8 1375.94,-125.3 1375.94,-132.3"/>
</g>
<!-- NotesComponent -->
<g id="node14" class="node">
<title>NotesComponent</title>
<polygon fill="#ffffb3" stroke="black" points="700.99,-84.8 587.01,-84.8 587.01,-48.8 700.99,-48.8 700.99,-84.8"/>
<text text-anchor="middle" x="644" y="-62.6" font-family="Times,serif" font-size="14.00">NotesComponent</text>
</g>
<!-- NotesComponent&#45;&gt;AppModule -->
<g id="edge14" class="edge">
<title>NotesComponent&#45;&gt;AppModule</title>
<path fill="none" stroke="black" d="M644,-84.91C644,-104.14 644,-131.8 644,-131.8 644,-131.8 1376.13,-131.8 1376.13,-131.8"/>
<polygon fill="black" stroke="black" points="1376.13,-135.3 1386.13,-131.8 1376.13,-128.3 1376.13,-135.3"/>
</g>
<!-- TabsComponent -->
<g id="node15" class="node">
<title>TabsComponent</title>
<polygon fill="#ffffb3" stroke="black" points="569.05,-84.8 460.95,-84.8 460.95,-48.8 569.05,-48.8 569.05,-84.8"/>
<text text-anchor="middle" x="515" y="-62.6" font-family="Times,serif" font-size="14.00">TabsComponent</text>
</g>
<!-- TabsComponent&#45;&gt;AppModule -->
<g id="edge15" class="edge">
<title>TabsComponent&#45;&gt;AppModule</title>
<path fill="none" stroke="black" d="M515,-84.93C515,-105.37 515,-135.8 515,-135.8 515,-135.8 1376.1,-135.8 1376.1,-135.8"/>
<polygon fill="black" stroke="black" points="1376.1,-139.3 1386.1,-135.8 1376.1,-132.3 1376.1,-139.3"/>
</g>
<!-- TodoItemComponent -->
<g id="node16" class="node">
<title>TodoItemComponent</title>
<polygon fill="#ffffb3" stroke="black" points="442.04,-84.8 305.96,-84.8 305.96,-48.8 442.04,-48.8 442.04,-84.8"/>
<text text-anchor="middle" x="374" y="-62.6" font-family="Times,serif" font-size="14.00">TodoItemComponent</text>
</g>
<!-- TodoItemComponent&#45;&gt;AppModule -->
<g id="edge16" class="edge">
<title>TodoItemComponent&#45;&gt;AppModule</title>
<path fill="none" stroke="black" d="M374,-84.84C374,-106.46 374,-139.8 374,-139.8 374,-139.8 1376.03,-139.8 1376.03,-139.8"/>
<polygon fill="black" stroke="black" points="1376.03,-143.3 1386.03,-139.8 1376.03,-136.3 1376.03,-143.3"/>
</g>
<!-- TodosComponent -->
<g id="node17" class="node">
<title>TodosComponent</title>
<polygon fill="#ffffb3" stroke="black" points="288.33,-84.8 171.67,-84.8 171.67,-48.8 288.33,-48.8 288.33,-84.8"/>
<text text-anchor="middle" x="230" y="-62.6" font-family="Times,serif" font-size="14.00">TodosComponent</text>
</g>
<!-- TodosComponent&#45;&gt;AppModule -->
<g id="edge17" class="edge">
<title>TodosComponent&#45;&gt;AppModule</title>
<path fill="none" stroke="black" d="M230,-84.81C230,-107.29 230,-142.8 230,-142.8 230,-142.8 1376.06,-142.8 1376.06,-142.8"/>
<polygon fill="black" stroke="black" points="1376.07,-146.3 1386.06,-142.8 1376.06,-139.3 1376.07,-146.3"/>
</g>
<!-- YoutubeComponent -->
<g id="node18" class="node">
<title>YoutubeComponent</title>
<polygon fill="#ffffb3" stroke="black" points="153.55,-84.8 24.45,-84.8 24.45,-48.8 153.55,-48.8 153.55,-84.8"/>
<text text-anchor="middle" x="89" y="-62.6" font-family="Times,serif" font-size="14.00">YoutubeComponent</text>
</g>
<!-- YoutubeComponent&#45;&gt;AppModule -->
<g id="edge18" class="edge">
<title>YoutubeComponent&#45;&gt;AppModule</title>
<path fill="none" stroke="black" d="M89,-84.95C89,-108.56 89,-146.8 89,-146.8 89,-146.8 1376.09,-146.8 1376.09,-146.8"/>
<polygon fill="black" stroke="black" points="1376.09,-150.3 1386.09,-146.8 1376.09,-143.3 1376.09,-150.3"/>
</g>
<!-- AppComponent  -->
<g id="node21" class="node">
<title>AppComponent </title>
<polygon fill="#80b1d3" stroke="black" points="1482.44,-214.8 1373.56,-214.8 1373.56,-178.8 1482.44,-178.8 1482.44,-214.8"/>
<text text-anchor="middle" x="1428" y="-192.6" font-family="Times,serif" font-size="14.00">AppComponent </text>
</g>
<!-- AppModule&#45;&gt;AppComponent  -->
<g id="edge20" class="edge">
<title>AppModule&#45;&gt;AppComponent </title>
<path fill="none" stroke="black" stroke-dasharray="1,5" d="M1428,-149.91C1428,-149.91 1428,-168.79 1428,-168.79"/>
<polygon fill="black" stroke="black" points="1424.5,-168.79 1428,-178.79 1431.5,-168.79 1424.5,-168.79"/>
</g>
<!-- AppRoutingModule -->
<g id="node20" class="node">
<title>AppRoutingModule</title>
<polygon fill="#8dd3c7" stroke="black" points="2933.28,-84.8 2930.28,-88.8 2909.28,-88.8 2906.28,-84.8 2804.72,-84.8 2804.72,-48.8 2933.28,-48.8 2933.28,-84.8"/>
<text text-anchor="middle" x="2869" y="-62.6" font-family="Times,serif" font-size="14.00">AppRoutingModule</text>
</g>
<!-- AppRoutingModule&#45;&gt;AppModule -->
<g id="edge19" class="edge">
<title>AppRoutingModule&#45;&gt;AppModule</title>
<path fill="none" stroke="black" d="M2869,-84.95C2869,-108.56 2869,-146.8 2869,-146.8 2869,-146.8 1479.96,-146.8 1479.96,-146.8"/>
<polygon fill="black" stroke="black" points="1479.96,-143.3 1469.96,-146.8 1479.96,-150.3 1479.96,-143.3"/>
</g>
</g>
</svg>
