<?xml version="1.0" encoding="UTF-8" standalone="no"?>
<!DOCTYPE svg PUBLIC "-//W3C//DTD SVG 1.1//EN"
 "http://www.w3.org/Graphics/SVG/1.1/DTD/svg11.dtd">
<!-- Generated by graphviz version 3.0.0 (20220226.1711)
 -->
<!-- Title: dependencies Pages: 1 -->
<svg width="2965pt" height="247pt"
 viewBox="0.00 0.00 2965.00 246.80" xmlns="http://www.w3.org/2000/svg" xmlns:xlink="http://www.w3.org/1999/xlink">
<g id="graph0" class="graph" transform="scale(1 1) rotate(0) translate(4 242.8)">
<title>dependencies</title>
<polygon fill="white" stroke="transparent" points="-4,4 -4,-242.8 2961,-242.8 2961,4 -4,4"/>
<text text-anchor="middle" x="1478.5" y="-8.2" font-family="sans-serif" font-size="14.00">dependencies</text>
<g id="clust1" class="cluster">
<title>cluster_AppModule</title>
<polygon fill="none" stroke="black" stroke-dasharray="1,5" points="8,-32.8 8,-230.8 2949,-230.8 2949,-32.8 8,-32.8"/>
</g>
<g id="clust2" class="cluster">
<title>cluster_AppModule_declarations</title>
<polygon fill="none" stroke="black" points="168,-40.8 168,-92.8 2941,-92.8 2941,-40.8 168,-40.8"/>
</g>
<g id="clust21" class="cluster">
<title>cluster_AppModule_imports</title>
<polygon fill="none" stroke="black" points="16,-40.8 16,-92.8 160,-92.8 160,-40.8 16,-40.8"/>
</g>
<g id="clust23" class="cluster">
<title>cluster_AppModule_bootstrap</title>
<polygon fill="none" stroke="black" points="1372,-170.8 1372,-222.8 1496,-222.8 1496,-170.8 1372,-170.8"/>
</g>
<!-- AddBookmarkComponent -->
<g id="node1" class="node">
<title>AddBookmarkComponent</title>
<polygon fill="#ffffb3" stroke="black" points="2933.05,-84.8 2768.95,-84.8 2768.95,-48.8 2933.05,-48.8 2933.05,-84.8"/>
<text text-anchor="middle" x="2851" y="-62.6" font-family="Times,serif" font-size="14.00">AddBookmarkComponent</text>
</g>
<!-- AppModule -->
<g id="node19" class="node">
<title>AppModule</title>
<polygon fill="#8dd3c7" stroke="black" points="1475.66,-149.8 1472.66,-153.8 1451.66,-153.8 1448.66,-149.8 1392.34,-149.8 1392.34,-113.8 1475.66,-113.8 1475.66,-149.8"/>
<text text-anchor="middle" x="1434" y="-127.6" font-family="Times,serif" font-size="14.00">AppModule</text>
</g>
<!-- AddBookmarkComponent&#45;&gt;AppModule -->
<g id="edge1" class="edge">
<title>AddBookmarkComponent&#45;&gt;AppModule</title>
<path fill="none" stroke="black" d="M2851,-84.95C2851,-108.56 2851,-146.8 2851,-146.8 2851,-146.8 1486.02,-146.8 1486.02,-146.8"/>
<polygon fill="black" stroke="black" points="1486.02,-143.3 1476.02,-146.8 1486.02,-150.3 1486.02,-143.3"/>
</g>
<!-- AddNoteComponent -->
<g id="node2" class="node">
<title>AddNoteComponent</title>
<polygon fill="#ffffb3" stroke="black" points="2750.16,-84.8 2617.84,-84.8 2617.84,-48.8 2750.16,-48.8 2750.16,-84.8"/>
<text text-anchor="middle" x="2684" y="-62.6" font-family="Times,serif" font-size="14.00">AddNoteComponent</text>
</g>
<!-- AddNoteComponent&#45;&gt;AppModule -->
<g id="edge2" class="edge">
<title>AddNoteComponent&#45;&gt;AppModule</title>
<path fill="none" stroke="black" d="M2684,-84.81C2684,-107.29 2684,-142.8 2684,-142.8 2684,-142.8 1485.95,-142.8 1485.95,-142.8"/>
<polygon fill="black" stroke="black" points="1485.95,-139.3 1475.95,-142.8 1485.95,-146.3 1485.95,-139.3"/>
</g>
<!-- AddTodoComponent -->
<g id="node3" class="node">
<title>AddTodoComponent</title>
<polygon fill="#ffffb3" stroke="black" points="2599.49,-84.8 2464.51,-84.8 2464.51,-48.8 2599.49,-48.8 2599.49,-84.8"/>
<text text-anchor="middle" x="2532" y="-62.6" font-family="Times,serif" font-size="14.00">AddTodoComponent</text>
</g>
<!-- AddTodoComponent&#45;&gt;AppModule -->
<g id="edge3" class="edge">
<title>AddTodoComponent&#45;&gt;AppModule</title>
<path fill="none" stroke="black" d="M2532,-84.84C2532,-106.46 2532,-139.8 2532,-139.8 2532,-139.8 1485.7,-139.8 1485.7,-139.8"/>
<polygon fill="black" stroke="black" points="1485.7,-136.3 1475.7,-139.8 1485.7,-143.3 1485.7,-136.3"/>
</g>
<!-- AppComponent -->
<g id="node4" class="node">
<title>AppComponent</title>
<polygon fill="#ffffb3" stroke="black" points="2446.94,-84.8 2341.06,-84.8 2341.06,-48.8 2446.94,-48.8 2446.94,-84.8"/>
<text text-anchor="middle" x="2394" y="-62.6" font-family="Times,serif" font-size="14.00">AppComponent</text>
</g>
<!-- AppComponent&#45;&gt;AppModule -->
<g id="edge4" class="edge">
<title>AppComponent&#45;&gt;AppModule</title>
<path fill="none" stroke="black" d="M2394,-84.93C2394,-105.37 2394,-135.8 2394,-135.8 2394,-135.8 1485.87,-135.8 1485.87,-135.8"/>
<polygon fill="black" stroke="black" points="1485.87,-132.3 1475.87,-135.8 1485.87,-139.3 1485.87,-132.3"/>
</g>
<!-- BookmarkTileComponent -->
<g id="node5" class="node">
<title>BookmarkTileComponent</title>
<polygon fill="#ffffb3" stroke="black" points="2323.48,-84.8 2160.52,-84.8 2160.52,-48.8 2323.48,-48.8 2323.48,-84.8"/>
<text text-anchor="middle" x="2242" y="-62.6" font-family="Times,serif" font-size="14.00">BookmarkTileComponent</text>
</g>
<!-- BookmarkTileComponent&#45;&gt;AppModule -->
<g id="edge5" class="edge">
<title>BookmarkTileComponent&#45;&gt;AppModule</title>
<path fill="none" stroke="black" d="M2242,-84.91C2242,-104.14 2242,-131.8 2242,-131.8 2242,-131.8 1485.74,-131.8 1485.74,-131.8"/>
<polygon fill="black" stroke="black" points="1485.74,-128.3 1475.74,-131.8 1485.74,-135.3 1485.74,-128.3"/>
</g>
<!-- BookmarksComponent -->
<g id="node6" class="node">
<title>BookmarksComponent</title>
<polygon fill="#ffffb3" stroke="black" points="2142.88,-84.8 1997.12,-84.8 1997.12,-48.8 2142.88,-48.8 2142.88,-84.8"/>
<text text-anchor="middle" x="2070" y="-62.6" font-family="Times,serif" font-size="14.00">BookmarksComponent</text>
</g>
<!-- BookmarksComponent&#45;&gt;AppModule -->
<g id="edge6" class="edge">
<title>BookmarksComponent&#45;&gt;AppModule</title>
<path fill="none" stroke="black" d="M2070,-85.07C2070,-103.36 2070,-128.8 2070,-128.8 2070,-128.8 1485.73,-128.8 1485.73,-128.8"/>
<polygon fill="black" stroke="black" points="1485.73,-125.3 1475.73,-128.8 1485.73,-132.3 1485.73,-125.3"/>
</g>
<!-- EditBookmarkComponent -->
<g id="node7" class="node">
<title>EditBookmarkComponent</title>
<polygon fill="#ffffb3" stroke="black" points="1978.77,-84.8 1815.23,-84.8 1815.23,-48.8 1978.77,-48.8 1978.77,-84.8"/>
<text text-anchor="middle" x="1897" y="-62.6" font-family="Times,serif" font-size="14.00">EditBookmarkComponent</text>
</g>
<!-- EditBookmarkComponent&#45;&gt;AppModule -->
<g id="edge7" class="edge">
<title>EditBookmarkComponent&#45;&gt;AppModule</title>
<path fill="none" stroke="black" d="M1897,-84.83C1897,-101.86 1897,-124.8 1897,-124.8 1897,-124.8 1485.9,-124.8 1485.9,-124.8"/>
<polygon fill="black" stroke="black" points="1485.9,-121.3 1475.9,-124.8 1485.9,-128.3 1485.9,-121.3"/>
</g>
<!-- EditNoteComponent -->
<g id="node8" class="node">
<title>EditNoteComponent</title>
<polygon fill="#ffffb3" stroke="black" points="1796.88,-84.8 1665.12,-84.8 1665.12,-48.8 1796.88,-48.8 1796.88,-84.8"/>
<text text-anchor="middle" x="1731" y="-62.6" font-family="Times,serif" font-size="14.00">EditNoteComponent</text>
</g>
<!-- EditNoteComponent&#45;&gt;AppModule -->
<g id="edge8" class="edge">
<title>EditNoteComponent&#45;&gt;AppModule</title>
<path fill="none" stroke="black" d="M1731,-84.81C1731,-100.85 1731,-121.8 1731,-121.8 1731,-121.8 1485.92,-121.8 1485.92,-121.8"/>
<polygon fill="black" stroke="black" points="1485.92,-118.3 1475.92,-121.8 1485.92,-125.3 1485.92,-118.3"/>
</g>
<!-- EditTodoComponent -->
<g id="node9" class="node">
<title>EditTodoComponent</title>
<polygon fill="#ffffb3" stroke="black" points="1647.21,-84.8 1512.79,-84.8 1512.79,-48.8 1647.21,-48.8 1647.21,-84.8"/>
<text text-anchor="middle" x="1580" y="-62.6" font-family="Times,serif" font-size="14.00">EditTodoComponent</text>
</g>
<!-- EditTodoComponent&#45;&gt;AppModule -->
<g id="edge9" class="edge">
<title>EditTodoComponent&#45;&gt;AppModule</title>
<path fill="none" stroke="black" d="M1580,-84.92C1580,-99.58 1580,-117.8 1580,-117.8 1580,-117.8 1485.84,-117.8 1485.84,-117.8"/>
<polygon fill="black" stroke="black" points="1485.84,-114.3 1475.84,-117.8 1485.84,-121.3 1485.84,-114.3"/>
</g>
<!-- GoogleComponent -->
<g id="node10" class="node">
<title>GoogleComponent</title>
<polygon fill="#ffffb3" stroke="black" points="1495.05,-84.8 1372.95,-84.8 1372.95,-48.8 1495.05,-48.8 1495.05,-84.8"/>
<text text-anchor="middle" x="1434" y="-62.6" font-family="Times,serif" font-size="14.00">GoogleComponent</text>
</g>
<!-- GoogleComponent&#45;&gt;AppModule -->
<g id="edge10" class="edge">
<title>GoogleComponent&#45;&gt;AppModule</title>
<path fill="none" stroke="black" d="M1434,-84.91C1434,-84.91 1434,-103.79 1434,-103.79"/>
<polygon fill="black" stroke="black" points="1430.5,-103.79 1434,-113.79 1437.5,-103.79 1430.5,-103.79"/>
</g>
<!-- InfoBgComponent -->
<g id="node11" class="node">
<title>InfoBgComponent</title>
<polygon fill="#ffffb3" stroke="black" points="1354.49,-84.8 1233.51,-84.8 1233.51,-48.8 1354.49,-48.8 1354.49,-84.8"/>
<text text-anchor="middle" x="1294" y="-62.6" font-family="Times,serif" font-size="14.00">InfoBgComponent</text>
</g>
<!-- InfoBgComponent&#45;&gt;AppModule -->
<g id="edge11" class="edge">
<title>InfoBgComponent&#45;&gt;AppModule</title>
<path fill="none" stroke="black" d="M1294,-84.92C1294,-99.58 1294,-117.8 1294,-117.8 1294,-117.8 1382,-117.8 1382,-117.8"/>
<polygon fill="black" stroke="black" points="1382,-121.3 1392,-117.8 1382,-114.3 1382,-121.3"/>
</g>
<!-- ManageBookmarksComponent -->
<g id="node12" class="node">
<title>ManageBookmarksComponent</title>
<polygon fill="#ffffb3" stroke="black" points="1215.47,-84.8 1024.53,-84.8 1024.53,-48.8 1215.47,-48.8 1215.47,-84.8"/>
<text text-anchor="middle" x="1120" y="-62.6" font-family="Times,serif" font-size="14.00">ManageBookmarksComponent</text>
</g>
<!-- ManageBookmarksComponent&#45;&gt;AppModule -->
<g id="edge12" class="edge">
<title>ManageBookmarksComponent&#45;&gt;AppModule</title>
<path fill="none" stroke="black" d="M1120,-84.81C1120,-100.85 1120,-121.8 1120,-121.8 1120,-121.8 1382.3,-121.8 1382.3,-121.8"/>
<polygon fill="black" stroke="black" points="1382.3,-125.3 1392.3,-121.8 1382.3,-118.3 1382.3,-125.3"/>
</g>
<!-- NoteCardComponent -->
<g id="node13" class="node">
<title>NoteCardComponent</title>
<polygon fill="#ffffb3" stroke="black" points="1006.76,-84.8 871.24,-84.8 871.24,-48.8 1006.76,-48.8 1006.76,-84.8"/>
<text text-anchor="middle" x="939" y="-62.6" font-family="Times,serif" font-size="14.00">NoteCardComponent</text>
</g>
<!-- NoteCardComponent&#45;&gt;AppModule -->
<g id="edge13" class="edge">
<title>NoteCardComponent&#45;&gt;AppModule</title>
<path fill="none" stroke="black" d="M939,-84.83C939,-101.86 939,-124.8 939,-124.8 939,-124.8 1382.22,-124.8 1382.22,-124.8"/>
<polygon fill="black" stroke="black" points="1382.22,-128.3 1392.22,-124.8 1382.22,-121.3 1382.22,-128.3"/>
</g>
<!-- NotesComponent -->
<g id="node14" class="node">
<title>NotesComponent</title>
<polygon fill="#ffffb3" stroke="black" points="852.99,-84.8 739.01,-84.8 739.01,-48.8 852.99,-48.8 852.99,-84.8"/>
<text text-anchor="middle" x="796" y="-62.6" font-family="Times,serif" font-size="14.00">NotesComponent</text>
</g>
<!-- NotesComponent&#45;&gt;AppModule -->
<g id="edge14" class="edge">
<title>NotesComponent&#45;&gt;AppModule</title>
<path fill="none" stroke="black" d="M796,-85.07C796,-103.36 796,-128.8 796,-128.8 796,-128.8 1382.14,-128.8 1382.14,-128.8"/>
<polygon fill="black" stroke="black" points="1382.14,-132.3 1392.14,-128.8 1382.14,-125.3 1382.14,-132.3"/>
</g>
<!-- TabsComponent -->
<g id="node15" class="node">
<title>TabsComponent</title>
<polygon fill="#ffffb3" stroke="black" points="721.05,-84.8 612.95,-84.8 612.95,-48.8 721.05,-48.8 721.05,-84.8"/>
<text text-anchor="middle" x="667" y="-62.6" font-family="Times,serif" font-size="14.00">TabsComponent</text>
</g>
<!-- TabsComponent&#45;&gt;AppModule -->
<g id="edge15" class="edge">
<title>TabsComponent&#45;&gt;AppModule</title>
<path fill="none" stroke="black" d="M667,-84.91C667,-104.14 667,-131.8 667,-131.8 667,-131.8 1382.22,-131.8 1382.22,-131.8"/>
<polygon fill="black" stroke="black" points="1382.22,-135.3 1392.22,-131.8 1382.22,-128.3 1382.22,-135.3"/>
</g>
<!-- TodoItemComponent -->
<g id="node16" class="node">
<title>TodoItemComponent</title>
<polygon fill="#ffffb3" stroke="black" points="594.04,-84.8 457.96,-84.8 457.96,-48.8 594.04,-48.8 594.04,-84.8"/>
<text text-anchor="middle" x="526" y="-62.6" font-family="Times,serif" font-size="14.00">TodoItemComponent</text>
</g>
<!-- TodoItemComponent&#45;&gt;AppModule -->
<g id="edge16" class="edge">
<title>TodoItemComponent&#45;&gt;AppModule</title>
<path fill="none" stroke="black" d="M526,-84.93C526,-105.37 526,-135.8 526,-135.8 526,-135.8 1382.33,-135.8 1382.33,-135.8"/>
<polygon fill="black" stroke="black" points="1382.33,-139.3 1392.33,-135.8 1382.33,-132.3 1382.33,-139.3"/>
</g>
<!-- TodosComponent -->
<g id="node17" class="node">
<title>TodosComponent</title>
<polygon fill="#ffffb3" stroke="black" points="440.33,-84.8 323.67,-84.8 323.67,-48.8 440.33,-48.8 440.33,-84.8"/>
<text text-anchor="middle" x="382" y="-62.6" font-family="Times,serif" font-size="14.00">TodosComponent</text>
</g>
<!-- TodosComponent&#45;&gt;AppModule -->
<g id="edge17" class="edge">
<title>TodosComponent&#45;&gt;AppModule</title>
<path fill="none" stroke="black" d="M382,-84.84C382,-106.46 382,-139.8 382,-139.8 382,-139.8 1382.11,-139.8 1382.11,-139.8"/>
<polygon fill="black" stroke="black" points="1382.11,-143.3 1392.11,-139.8 1382.11,-136.3 1382.11,-143.3"/>
</g>
<!-- YoutubeComponent -->
<g id="node18" class="node">
<title>YoutubeComponent</title>
<polygon fill="#ffffb3" stroke="black" points="305.55,-84.8 176.45,-84.8 176.45,-48.8 305.55,-48.8 305.55,-84.8"/>
<text text-anchor="middle" x="241" y="-62.6" font-family="Times,serif" font-size="14.00">YoutubeComponent</text>
</g>
<!-- YoutubeComponent&#45;&gt;AppModule -->
<g id="edge18" class="edge">
<title>YoutubeComponent&#45;&gt;AppModule</title>
<path fill="none" stroke="black" d="M241,-84.81C241,-107.29 241,-142.8 241,-142.8 241,-142.8 1382.24,-142.8 1382.24,-142.8"/>
<polygon fill="black" stroke="black" points="1382.24,-146.3 1392.24,-142.8 1382.24,-139.3 1382.24,-146.3"/>
</g>
<!-- AppComponent  -->
<g id="node21" class="node">
<title>AppComponent </title>
<polygon fill="#80b1d3" stroke="black" points="1488.44,-214.8 1379.56,-214.8 1379.56,-178.8 1488.44,-178.8 1488.44,-214.8"/>
<text text-anchor="middle" x="1434" y="-192.6" font-family="Times,serif" font-size="14.00">AppComponent </text>
</g>
<!-- AppModule&#45;&gt;AppComponent  -->
<g id="edge20" class="edge">
<title>AppModule&#45;&gt;AppComponent </title>
<path fill="none" stroke="black" stroke-dasharray="1,5" d="M1434,-149.91C1434,-149.91 1434,-168.79 1434,-168.79"/>
<polygon fill="black" stroke="black" points="1430.5,-168.79 1434,-178.79 1437.5,-168.79 1430.5,-168.79"/>
</g>
<!-- AppRoutingModule -->
<g id="node20" class="node">
<title>AppRoutingModule</title>
<polygon fill="#8dd3c7" stroke="black" points="152.28,-84.8 149.28,-88.8 128.28,-88.8 125.28,-84.8 23.72,-84.8 23.72,-48.8 152.28,-48.8 152.28,-84.8"/>
<text text-anchor="middle" x="88" y="-62.6" font-family="Times,serif" font-size="14.00">AppRoutingModule</text>
</g>
<!-- AppRoutingModule&#45;&gt;AppModule -->
<g id="edge19" class="edge">
<title>AppRoutingModule&#45;&gt;AppModule</title>
<path fill="none" stroke="black" d="M88,-84.95C88,-108.56 88,-146.8 88,-146.8 88,-146.8 1382.24,-146.8 1382.24,-146.8"/>
<polygon fill="black" stroke="black" points="1382.24,-150.3 1392.24,-146.8 1382.24,-143.3 1382.24,-150.3"/>
</g>
</g>
</svg>
